<svg width="1440" height="1024" viewBox="0 0 1440 1024" fill="none" xmlns="http://www.w3.org/2000/svg">
<path d="M100.899 351.88C101.161 352.366 100.979 352.973 100.493 353.235C100.007 353.497 99.4 353.315 99.138 352.829C98.876 352.343 99.0577 351.736 99.5439 351.474C100.03 351.212 100.637 351.394 100.899 351.88Z" fill="#D9D9D9"/>
<path d="M600.211 -14.7641C599.714 -14.5226 599.116 -14.7295 598.874 -15.2262C598.633 -15.7229 598.839 -16.3213 599.336 -16.5628C599.833 -16.8043 600.431 -16.5974 600.673 -16.1007C600.914 -15.6041 600.707 -15.0056 600.211 -14.7641Z" fill="#D9D9D9"/>
<path d="M176.899 695.88C177.161 696.366 176.979 696.973 176.493 697.235C176.007 697.497 175.4 697.315 175.138 696.829C174.876 696.343 175.058 695.736 175.544 695.474C176.03 695.212 176.637 695.394 176.899 695.88Z" fill="#D9D9D9"/>
<path d="M253.341 46.8257C252.844 47.0672 252.246 46.8603 252.004 46.3636C251.763 45.8669 251.97 45.2685 252.466 45.027C252.963 44.7855 253.561 44.9924 253.803 45.4891C254.044 45.9858 253.838 46.5842 253.341 46.8257Z" fill="#D9D9D9"/>
<path d="M131.899 506.88C132.161 507.366 131.979 507.973 131.493 508.235C131.007 508.497 130.4 508.315 130.138 507.829C129.876 507.343 130.058 506.736 130.544 506.474C131.03 506.212 131.637 506.394 131.899 506.88Z" fill="#D9D9D9"/>
<path d="M444.053 9.74574C443.556 9.98725 442.958 9.78038 442.716 9.2837C442.475 8.78702 442.682 8.1886 443.178 7.9471C443.675 7.70559 444.273 7.91245 444.515 8.40913C444.756 8.90582 444.55 9.50424 444.053 9.74574Z" fill="#D9D9D9"/>
<path d="M207.899 850.88C208.161 851.366 207.979 851.973 207.493 852.235C207.007 852.497 206.4 852.315 206.138 851.829C205.876 851.343 206.058 850.736 206.544 850.474C207.03 850.212 207.637 850.394 207.899 850.88Z" fill="#D9D9D9"/>
<path d="M97.183 71.3355C96.6863 71.577 96.0879 71.3701 95.8464 70.8734C95.6049 70.3767 95.8118 69.7783 96.3085 69.5368C96.8051 69.2953 97.4036 69.5022 97.6451 69.9989C97.8866 70.4955 97.6797 71.094 97.183 71.3355Z" fill="#D9D9D9"/>
<path d="M176.514 439.495C176.776 439.981 176.594 440.588 176.108 440.85C175.622 441.112 175.015 440.93 174.753 440.444C174.491 439.958 174.673 439.351 175.159 439.089C175.645 438.827 176.252 439.009 176.514 439.495Z" fill="#D9D9D9"/>
<path d="M509.519 57.1319C509.022 57.3734 508.424 57.1665 508.182 56.6698C507.941 56.1731 508.148 55.5747 508.645 55.3332C509.141 55.0917 509.74 55.2986 509.981 55.7952C510.223 56.2919 510.016 56.8903 509.519 57.1319Z" fill="#D9D9D9"/>
<path d="M252.514 783.495C252.776 783.981 252.594 784.588 252.108 784.85C251.622 785.112 251.015 784.93 250.753 784.444C250.491 783.958 250.673 783.351 251.159 783.089C251.645 782.827 252.252 783.009 252.514 783.495Z" fill="#D9D9D9"/>
<path d="M162.649 118.722C162.153 118.963 161.554 118.756 161.313 118.26C161.071 117.763 161.278 117.164 161.775 116.923C162.271 116.681 162.87 116.888 163.111 117.385C163.353 117.882 163.146 118.48 162.649 118.722Z" fill="#D9D9D9"/>
<path d="M207.514 594.495C207.776 594.981 207.594 595.588 207.108 595.85C206.622 596.112 206.015 595.93 205.753 595.444C205.491 594.958 205.673 594.351 206.159 594.089C206.645 593.827 207.252 594.009 207.514 594.495Z" fill="#D9D9D9"/>
<path d="M353.361 81.6417C352.865 81.8832 352.266 81.6764 352.025 81.1797C351.783 80.683 351.99 80.0846 352.487 79.8431C352.983 79.6016 353.582 79.8084 353.823 80.3051C354.065 80.8018 353.858 81.4002 353.361 81.6417Z" fill="#D9D9D9"/>
<path d="M283.514 938.495C283.776 938.981 283.594 939.588 283.108 939.85C282.622 940.112 282.015 939.93 281.753 939.444C281.491 938.958 281.673 938.351 282.159 938.089C282.645 937.827 283.252 938.009 283.514 938.495Z" fill="#D9D9D9"/>
<path d="M6.49144 143.232C5.99475 143.473 5.39633 143.266 5.15483 142.769C4.91332 142.273 5.12019 141.674 5.61687 141.433C6.11355 141.191 6.71197 141.398 6.95348 141.895C7.19498 142.392 6.98812 142.99 6.49144 143.232Z" fill="#D9D9D9"/>
<path d="M177.105 385.786C177.367 386.272 177.185 386.879 176.699 387.141C176.213 387.403 175.606 387.221 175.344 386.735C175.082 386.249 175.264 385.642 175.75 385.38C176.236 385.118 176.843 385.3 177.105 385.786Z" fill="#D9D9D9"/>
<path d="M563.157 59.962C562.66 60.2035 562.062 59.9967 561.82 59.5C561.579 59.0033 561.785 58.4049 562.282 58.1634C562.779 57.9219 563.377 58.1287 563.619 58.6254C563.86 59.1221 563.653 59.7205 563.157 59.962Z" fill="#D9D9D9"/>
<path d="M253.105 729.786C253.367 730.272 253.185 730.879 252.699 731.141C252.213 731.403 251.606 731.221 251.344 730.735C251.082 730.249 251.264 729.642 251.75 729.38C252.236 729.118 252.843 729.3 253.105 729.786Z" fill="#D9D9D9"/>
<path d="M216.287 121.552C215.79 121.793 215.192 121.586 214.95 121.09C214.709 120.593 214.916 119.995 215.412 119.753C215.909 119.512 216.507 119.719 216.749 120.215C216.99 120.712 216.784 121.31 216.287 121.552Z" fill="#D9D9D9"/>
<path d="M208.105 540.786C208.367 541.272 208.185 541.879 207.699 542.141C207.213 542.403 206.606 542.221 206.344 541.735C206.082 541.249 206.264 540.642 206.75 540.38C207.236 540.118 207.843 540.3 208.105 540.786Z" fill="#D9D9D9"/>
<path d="M406.999 84.4719C406.502 84.7134 405.904 84.5065 405.662 84.0098C405.421 83.5132 405.628 82.9147 406.124 82.6732C406.621 82.4317 407.219 82.6386 407.461 83.1353C407.702 83.632 407.496 84.2304 406.999 84.4719Z" fill="#D9D9D9"/>
<path d="M284.105 884.786C284.367 885.272 284.185 885.879 283.699 886.141C283.213 886.403 282.606 886.221 282.344 885.735C282.082 885.249 282.264 884.642 282.75 884.38C283.236 884.118 283.843 884.3 284.105 884.786Z" fill="#D9D9D9"/>
<path d="M60.1291 146.062C59.6324 146.303 59.034 146.096 58.7925 145.6C58.551 145.103 58.7578 144.505 59.2545 144.263C59.7512 144.022 60.3496 144.228 60.5911 144.725C60.8326 145.222 60.6257 145.82 60.1291 146.062Z" fill="#D9D9D9"/>
<path d="M252.72 473.401C252.982 473.887 252.8 474.493 252.314 474.755C251.828 475.017 251.221 474.836 250.959 474.35C250.697 473.863 250.879 473.257 251.365 472.995C251.851 472.733 252.458 472.915 252.72 473.401Z" fill="#D9D9D9"/>
<path d="M472.465 131.858C471.968 132.1 471.37 131.893 471.129 131.396C470.887 130.899 471.094 130.301 471.591 130.059C472.087 129.818 472.686 130.025 472.927 130.521C473.169 131.018 472.962 131.617 472.465 131.858Z" fill="#D9D9D9"/>
<path d="M328.72 817.401C328.982 817.887 328.8 818.494 328.314 818.756C327.828 819.018 327.221 818.836 326.959 818.35C326.697 817.863 326.879 817.257 327.365 816.995C327.851 816.733 328.458 816.915 328.72 817.401Z" fill="#D9D9D9"/>
<path d="M125.595 193.448C125.099 193.689 124.5 193.482 124.259 192.986C124.017 192.489 124.224 191.891 124.721 191.649C125.217 191.408 125.816 191.615 126.057 192.111C126.299 192.608 126.092 193.206 125.595 193.448Z" fill="#D9D9D9"/>
<path d="M283.72 628.401C283.982 628.887 283.8 629.494 283.314 629.756C282.828 630.018 282.221 629.836 281.959 629.35C281.697 628.863 281.879 628.257 282.365 627.995C282.851 627.733 283.458 627.915 283.72 628.401Z" fill="#D9D9D9"/>
<path d="M316.307 156.368C315.811 156.609 315.212 156.403 314.971 155.906C314.729 155.409 314.936 154.811 315.433 154.569C315.929 154.328 316.528 154.535 316.769 155.031C317.011 155.528 316.804 156.126 316.307 156.368Z" fill="#D9D9D9"/>
<path d="M359.72 972.401C359.982 972.887 359.8 973.494 359.314 973.756C358.828 974.018 358.221 973.836 357.959 973.35C357.697 972.864 357.879 972.257 358.365 971.995C358.851 971.733 359.458 971.915 359.72 972.401Z" fill="#D9D9D9"/>
<path d="M-30.5625 217.958C-31.0592 218.199 -31.6576 217.992 -31.8991 217.496C-32.1406 216.999 -31.9337 216.401 -31.4371 216.159C-30.9404 215.918 -30.342 216.124 -30.1004 216.621C-29.8589 217.118 -30.0658 217.716 -30.5625 217.958Z" fill="#D9D9D9"/>
<path d="M905.562 348.544C905.824 349.03 905.643 349.637 905.156 349.899C904.67 350.161 904.064 349.979 903.802 349.493C903.54 349.007 903.721 348.4 904.208 348.138C904.694 347.876 905.3 348.058 905.562 348.544Z" fill="#D9D9D9"/>
<path d="M1404.87 -18.1004C1404.38 -17.8589 1403.78 -18.0658 1403.54 -18.5625C1403.3 -19.0592 1403.5 -19.6576 1404 -19.8991C1404.5 -20.1406 1405.09 -19.9337 1405.34 -19.4371C1405.58 -18.9404 1405.37 -18.342 1404.87 -18.1004Z" fill="#D9D9D9"/>
<path d="M981.562 692.544C981.824 693.03 981.643 693.637 981.156 693.899C980.67 694.161 980.064 693.979 979.802 693.493C979.54 693.007 979.721 692.4 980.208 692.138C980.694 691.876 981.3 692.058 981.562 692.544Z" fill="#D9D9D9"/>
<path d="M1058 43.4894C1057.51 43.7309 1056.91 43.524 1056.67 43.0273C1056.43 42.5306 1056.63 41.9322 1057.13 41.6907C1057.63 41.4492 1058.23 41.6561 1058.47 42.1528C1058.71 42.6494 1058.5 43.2479 1058 43.4894Z" fill="#D9D9D9"/>
<path d="M936.562 503.544C936.824 504.03 936.643 504.637 936.156 504.899C935.67 505.161 935.064 504.979 934.802 504.493C934.54 504.007 934.721 503.4 935.208 503.138C935.694 502.876 936.3 503.058 936.562 503.544Z" fill="#D9D9D9"/>
<path d="M1248.72 6.40944C1248.22 6.65094 1247.62 6.44408 1247.38 5.9474C1247.14 5.45071 1247.35 4.8523 1247.84 4.61079C1248.34 4.36929 1248.94 4.57615 1249.18 5.07283C1249.42 5.56951 1249.21 6.16793 1248.72 6.40944Z" fill="#D9D9D9"/>
<path d="M1012.56 847.544C1012.82 848.03 1012.64 848.637 1012.16 848.899C1011.67 849.161 1011.06 848.979 1010.8 848.493C1010.54 848.007 1010.72 847.4 1011.21 847.138C1011.69 846.876 1012.3 847.058 1012.56 847.544Z" fill="#D9D9D9"/>
<path d="M901.847 67.9992C901.35 68.2407 900.752 68.0338 900.51 67.5371C900.269 67.0404 900.475 66.442 900.972 66.2005C901.469 65.959 902.067 66.1659 902.309 66.6626C902.55 67.1592 902.343 67.7577 901.847 67.9992Z" fill="#D9D9D9"/>
<path d="M981.177 436.159C981.439 436.645 981.258 437.251 980.772 437.513C980.285 437.775 979.679 437.594 979.417 437.107C979.155 436.621 979.337 436.015 979.823 435.753C980.309 435.491 980.915 435.672 981.177 436.159Z" fill="#D9D9D9"/>
<path d="M1314.18 53.7955C1313.69 54.0371 1313.09 53.8302 1312.85 53.3335C1312.6 52.8368 1312.81 52.2384 1313.31 51.9969C1313.8 51.7554 1314.4 51.9623 1314.64 52.4589C1314.89 52.9556 1314.68 53.554 1314.18 53.7955Z" fill="#D9D9D9"/>
<path d="M1057.18 780.159C1057.44 780.645 1057.26 781.251 1056.77 781.513C1056.29 781.775 1055.68 781.594 1055.42 781.108C1055.15 780.621 1055.34 780.015 1055.82 779.753C1056.31 779.491 1056.92 779.673 1057.18 780.159Z" fill="#D9D9D9"/>
<path d="M967.313 115.385C966.816 115.627 966.218 115.42 965.976 114.923C965.735 114.427 965.942 113.828 966.438 113.587C966.935 113.345 967.533 113.552 967.775 114.049C968.016 114.545 967.81 115.144 967.313 115.385Z" fill="#D9D9D9"/>
<path d="M1012.18 591.159C1012.44 591.645 1012.26 592.251 1011.77 592.513C1011.29 592.775 1010.68 592.594 1010.42 592.108C1010.15 591.621 1010.34 591.015 1010.82 590.753C1011.31 590.491 1011.92 590.673 1012.18 591.159Z" fill="#D9D9D9"/>
<path d="M1158.02 78.3054C1157.53 78.5469 1156.93 78.3401 1156.69 77.8434C1156.45 77.3467 1156.65 76.7483 1157.15 76.5068C1157.65 76.2653 1158.25 76.4721 1158.49 76.9688C1158.73 77.4655 1158.52 78.0639 1158.02 78.3054Z" fill="#D9D9D9"/>
<path d="M1088.18 935.159C1088.44 935.645 1088.26 936.252 1087.77 936.514C1087.29 936.776 1086.68 936.594 1086.42 936.108C1086.15 935.621 1086.34 935.015 1086.82 934.753C1087.31 934.491 1087.92 934.673 1088.18 935.159Z" fill="#D9D9D9"/>
<path d="M811.155 139.895C810.658 140.137 810.06 139.93 809.818 139.433C809.577 138.936 809.784 138.338 810.281 138.097C810.777 137.855 811.376 138.062 811.617 138.559C811.859 139.055 811.652 139.654 811.155 139.895Z" fill="#D9D9D9"/>
<path d="M981.769 382.45C982.031 382.936 981.849 383.542 981.363 383.804C980.876 384.066 980.27 383.885 980.008 383.399C979.746 382.912 979.928 382.306 980.414 382.044C980.9 381.782 981.507 381.964 981.769 382.45Z" fill="#D9D9D9"/>
<path d="M1367.82 56.6257C1367.32 56.8672 1366.73 56.6604 1366.48 56.1637C1366.24 55.667 1366.45 55.0686 1366.95 54.8271C1367.44 54.5856 1368.04 54.7924 1368.28 55.2891C1368.52 55.7858 1368.32 56.3842 1367.82 56.6257Z" fill="#D9D9D9"/>
<path d="M1057.77 726.45C1058.03 726.936 1057.85 727.542 1057.36 727.805C1056.88 728.067 1056.27 727.885 1056.01 727.399C1055.75 726.912 1055.93 726.306 1056.41 726.044C1056.9 725.782 1057.51 725.964 1057.77 726.45Z" fill="#D9D9D9"/>
<path d="M1020.95 118.216C1020.45 118.457 1019.86 118.25 1019.61 117.753C1019.37 117.257 1019.58 116.658 1020.08 116.417C1020.57 116.175 1021.17 116.382 1021.41 116.879C1021.65 117.376 1021.45 117.974 1020.95 118.216Z" fill="#D9D9D9"/>
<path d="M1012.77 537.45C1013.03 537.936 1012.85 538.542 1012.36 538.805C1011.88 539.067 1011.27 538.885 1011.01 538.399C1010.75 537.912 1010.93 537.306 1011.41 537.044C1011.9 536.782 1012.51 536.964 1012.77 537.45Z" fill="#D9D9D9"/>
<path d="M1211.66 81.1356C1211.17 81.3771 1210.57 81.1702 1210.33 80.6735C1210.08 80.1769 1210.29 79.5784 1210.79 79.3369C1211.28 79.0954 1211.88 79.3023 1212.12 79.799C1212.37 80.2956 1212.16 80.8941 1211.66 81.1356Z" fill="#D9D9D9"/>
<path d="M1088.77 881.45C1089.03 881.936 1088.85 882.542 1088.36 882.805C1087.88 883.067 1087.27 882.885 1087.01 882.399C1086.75 881.912 1086.93 881.306 1087.41 881.044C1087.9 880.782 1088.51 880.964 1088.77 881.45Z" fill="#D9D9D9"/>
<path d="M864.793 142.725C864.296 142.967 863.698 142.76 863.456 142.263C863.215 141.767 863.421 141.168 863.918 140.927C864.415 140.685 865.013 140.892 865.255 141.389C865.496 141.885 865.289 142.484 864.793 142.725Z" fill="#D9D9D9"/>
<path d="M1057.38 470.064C1057.65 470.551 1057.46 471.157 1056.98 471.419C1056.49 471.681 1055.89 471.499 1055.62 471.013C1055.36 470.527 1055.54 469.921 1056.03 469.659C1056.52 469.397 1057.12 469.578 1057.38 470.064Z" fill="#D9D9D9"/>
<path d="M1277.13 128.522C1276.63 128.763 1276.03 128.556 1275.79 128.06C1275.55 127.563 1275.76 126.965 1276.25 126.723C1276.75 126.482 1277.35 126.688 1277.59 127.185C1277.83 127.682 1277.63 128.28 1277.13 128.522Z" fill="#D9D9D9"/>
<path d="M1133.38 814.065C1133.65 814.551 1133.46 815.157 1132.98 815.419C1132.49 815.681 1131.89 815.5 1131.62 815.013C1131.36 814.527 1131.54 813.921 1132.03 813.659C1132.52 813.397 1133.12 813.578 1133.38 814.065Z" fill="#D9D9D9"/>
<path d="M930.259 190.112C929.762 190.353 929.164 190.146 928.922 189.649C928.681 189.153 928.888 188.554 929.384 188.313C929.881 188.071 930.48 188.278 930.721 188.775C930.963 189.272 930.756 189.87 930.259 190.112Z" fill="#D9D9D9"/>
<path d="M1088.38 625.065C1088.65 625.551 1088.46 626.157 1087.98 626.419C1087.49 626.681 1086.89 626.5 1086.62 626.013C1086.36 625.527 1086.54 624.921 1087.03 624.659C1087.52 624.397 1088.12 624.578 1088.38 625.065Z" fill="#D9D9D9"/>
<path d="M1120.97 153.032C1120.47 153.273 1119.88 153.066 1119.63 152.57C1119.39 152.073 1119.6 151.474 1120.1 151.233C1120.59 150.991 1121.19 151.198 1121.43 151.695C1121.67 152.192 1121.47 152.79 1120.97 153.032Z" fill="#D9D9D9"/>
<path d="M1164.38 969.065C1164.65 969.551 1164.46 970.157 1163.98 970.419C1163.49 970.681 1162.89 970.5 1162.62 970.014C1162.36 969.527 1162.54 968.921 1163.03 968.659C1163.52 968.397 1164.12 968.579 1164.38 969.065Z" fill="#D9D9D9"/>
<path d="M774.101 214.621C773.604 214.863 773.006 214.656 772.765 214.159C772.523 213.663 772.73 213.064 773.227 212.823C773.723 212.581 774.322 212.788 774.563 213.285C774.805 213.781 774.598 214.38 774.101 214.621Z" fill="#D9D9D9"/>
<path d="M550.562 1135.54C550.824 1136.03 550.643 1136.64 550.156 1136.9C549.67 1137.16 549.064 1136.98 548.802 1136.49C548.54 1136.01 548.721 1135.4 549.208 1135.14C549.694 1134.88 550.3 1135.06 550.562 1135.54Z" fill="#D9D9D9"/>
<path d="M1049.87 768.9C1049.38 769.141 1048.78 768.934 1048.54 768.438C1048.3 767.941 1048.5 767.342 1049 767.101C1049.5 766.859 1050.09 767.066 1050.34 767.563C1050.58 768.06 1050.37 768.658 1049.87 768.9Z" fill="#D9D9D9"/>
<path d="M626.562 1479.54C626.824 1480.03 626.643 1480.64 626.156 1480.9C625.67 1481.16 625.47 1479.62 625.208 1479.14C624.721 1479.4 624.946 1478.65 625.208 1479.14C625.694 1478.88 626.3 1479.06 626.562 1479.54Z" fill="#D9D9D9"/>
<path d="M703.005 830.489C702.508 830.731 701.909 830.524 701.668 830.027C701.426 829.531 701.633 828.932 702.13 828.691C702.627 828.449 703.225 828.656 703.467 829.153C703.708 829.649 703.501 830.248 703.005 830.489Z" fill="#D9D9D9"/>
<path d="M581.562 1290.54C581.824 1291.03 581.643 1291.64 581.156 1291.9C580.67 1292.16 580.064 1291.98 579.802 1291.49C579.54 1291.01 579.721 1290.4 580.208 1290.14C580.694 1289.88 581.3 1290.06 581.562 1290.54Z" fill="#D9D9D9"/>
<path d="M893.716 793.409C893.22 793.651 892.621 793.444 892.38 792.947C892.138 792.451 892.345 791.852 892.842 791.611C893.339 791.369 893.937 791.576 894.179 792.073C894.42 792.569 894.213 793.168 893.716 793.409Z" fill="#D9D9D9"/>
<path d="M657.562 1634.54C657.824 1635.03 657.643 1635.64 657.156 1635.9C656.67 1636.16 656.064 1635.98 655.802 1635.49C655.54 1635.01 655.721 1634.4 656.208 1634.14C656.694 1633.88 657.3 1634.06 657.562 1634.54Z" fill="#D9D9D9"/>
<path d="M546.847 854.999C546.35 855.241 545.752 855.034 545.51 854.537C545.269 854.04 545.475 853.442 545.972 853.201C546.469 852.959 547.067 853.166 547.309 853.663C547.55 854.159 547.343 854.758 546.847 854.999Z" fill="#D9D9D9"/>
<path d="M626.177 1223.16C626.439 1223.64 626.258 1224.25 625.772 1224.51C625.285 1224.78 624.679 1224.59 624.417 1224.11C624.155 1223.62 624.337 1223.01 624.823 1222.75C625.309 1222.49 625.915 1222.67 626.177 1223.16Z" fill="#D9D9D9"/>
<path d="M959.183 840.796C958.686 841.037 958.088 840.83 957.846 840.333C957.605 839.837 957.811 839.238 958.308 838.997C958.805 838.755 959.403 838.962 959.645 839.459C959.886 839.956 959.679 840.554 959.183 840.796Z" fill="#D9D9D9"/>
<path d="M702.177 1567.16C702.439 1567.64 702.258 1568.25 701.771 1568.51C701.285 1568.78 700.679 1568.59 700.417 1568.11C700.155 1567.62 700.337 1567.01 700.823 1566.75C701.309 1566.49 701.915 1566.67 702.177 1567.16Z" fill="#D9D9D9"/>
<path d="M612.313 902.385C611.816 902.627 611.218 902.42 610.976 901.923C610.735 901.427 610.942 900.828 611.438 900.587C611.935 900.345 612.533 900.552 612.775 901.049C613.016 901.545 612.81 902.144 612.313 902.385Z" fill="#D9D9D9"/>
<path d="M657.177 1378.16C657.439 1378.64 657.258 1379.25 656.772 1379.51C656.285 1379.78 655.679 1379.59 655.417 1379.11C655.155 1378.62 655.337 1378.01 655.823 1377.75C656.309 1377.49 656.915 1377.67 657.177 1378.16Z" fill="#D9D9D9"/>
<path d="M803.025 865.305C802.528 865.547 801.93 865.34 801.688 864.843C801.447 864.347 801.654 863.748 802.15 863.507C802.647 863.265 803.245 863.472 803.487 863.969C803.728 864.465 803.522 865.064 803.025 865.305Z" fill="#D9D9D9"/>
<path d="M733.177 1722.16C733.439 1722.65 733.258 1723.25 732.771 1723.51C732.285 1723.78 731.679 1723.59 731.417 1723.11C731.155 1722.62 731.336 1722.01 731.823 1721.75C732.309 1721.49 732.915 1721.67 733.177 1722.16Z" fill="#D9D9D9"/>
<path d="M456.155 926.895C455.658 927.137 455.06 926.93 454.818 926.433C454.577 925.936 454.784 925.338 455.281 925.097C455.777 924.855 456.376 925.062 456.617 925.559C456.859 926.055 456.652 926.654 456.155 926.895Z" fill="#D9D9D9"/>
<path d="M626.769 1169.45C627.031 1169.94 626.849 1170.54 626.363 1170.8C625.876 1171.07 625.27 1170.88 625.008 1170.4C624.746 1169.91 624.928 1169.31 625.414 1169.04C625.9 1168.78 626.507 1168.96 626.769 1169.45Z" fill="#D9D9D9"/>
<path d="M1012.82 843.626C1012.32 843.867 1011.73 843.66 1011.48 843.164C1011.24 842.667 1011.45 842.069 1011.95 841.827C1012.44 841.586 1013.04 841.792 1013.28 842.289C1013.52 842.786 1013.32 843.384 1012.82 843.626Z" fill="#D9D9D9"/>
<path d="M702.768 1513.45C703.03 1513.94 702.849 1514.54 702.363 1514.8C701.876 1515.07 701.27 1514.88 701.008 1514.4C700.746 1513.91 700.928 1513.31 701.414 1513.04C701.9 1512.78 702.506 1512.96 702.768 1513.45Z" fill="#D9D9D9"/>
<path d="M665.951 905.216C665.454 905.457 664.855 905.25 664.614 904.753C664.372 904.257 664.579 903.658 665.076 903.417C665.573 903.175 666.171 903.382 666.413 903.879C666.654 904.376 666.447 904.974 665.951 905.216Z" fill="#D9D9D9"/>
<path d="M657.768 1324.45C658.03 1324.94 657.849 1325.54 657.363 1325.8C656.876 1326.07 656.27 1325.88 656.008 1325.4C655.746 1324.91 655.928 1324.31 656.414 1324.04C656.9 1323.78 657.506 1323.96 657.768 1324.45Z" fill="#D9D9D9"/>
<path d="M856.663 868.136C856.166 868.377 855.567 868.17 855.326 867.674C855.084 867.177 855.291 866.578 855.788 866.337C856.285 866.095 856.883 866.302 857.125 866.799C857.366 867.296 857.159 867.894 856.663 868.136Z" fill="#D9D9D9"/>
<path d="M733.768 1668.45C734.03 1668.94 733.849 1669.54 733.363 1669.8C732.876 1670.07 732.27 1669.88 732.008 1669.4C731.746 1668.91 731.928 1668.31 732.414 1668.04C732.9 1667.78 733.506 1667.96 733.768 1668.45Z" fill="#D9D9D9"/>
<path d="M509.793 929.725C509.296 929.967 508.698 929.76 508.456 929.263C508.215 928.767 508.421 928.168 508.918 927.927C509.415 927.685 510.013 927.892 510.255 928.389C510.496 928.885 510.289 929.484 509.793 929.725Z" fill="#D9D9D9"/>
<path d="M702.384 1257.06C702.646 1257.55 702.464 1258.16 701.978 1258.42C701.492 1258.68 700.885 1258.5 700.623 1258.01C700.361 1257.53 700.543 1256.92 701.029 1256.66C701.515 1256.4 702.122 1256.58 702.384 1257.06Z" fill="#D9D9D9"/>
<path d="M922.129 915.522C921.632 915.763 921.034 915.556 920.792 915.06C920.551 914.563 920.758 913.965 921.254 913.723C921.751 913.482 922.349 913.688 922.591 914.185C922.832 914.682 922.626 915.28 922.129 915.522Z" fill="#D9D9D9"/>
<path d="M778.384 1601.06C778.646 1601.55 778.464 1602.16 777.978 1602.42C777.492 1602.68 776.885 1602.5 776.623 1602.01C776.361 1601.53 776.543 1600.92 777.029 1600.66C777.515 1600.4 778.122 1600.58 778.384 1601.06Z" fill="#D9D9D9"/>
<path d="M575.259 977.112C574.762 977.353 574.164 977.146 573.922 976.65C573.681 976.153 573.888 975.554 574.384 975.313C574.881 975.071 575.48 975.278 575.721 975.775C575.963 976.272 575.756 976.87 575.259 977.112Z" fill="#D9D9D9"/>
<path d="M733.384 1412.06C733.646 1412.55 733.464 1413.16 732.978 1413.42C732.492 1413.68 731.885 1413.5 731.623 1413.01C731.361 1412.53 731.543 1411.92 732.029 1411.66C732.515 1411.4 733.122 1411.58 733.384 1412.06Z" fill="#D9D9D9"/>
<path d="M765.971 940.032C765.474 940.273 764.876 940.066 764.634 939.57C764.393 939.073 764.6 938.474 765.096 938.233C765.593 937.991 766.192 938.198 766.433 938.695C766.675 939.192 766.468 939.79 765.971 940.032Z" fill="#D9D9D9"/>
<path d="M809.384 1756.06C809.646 1756.55 809.464 1757.16 808.978 1757.42C808.492 1757.68 807.885 1757.5 807.623 1757.01C807.361 1756.53 807.543 1755.92 808.029 1755.66C808.515 1755.4 809.122 1755.58 809.384 1756.06Z" fill="#D9D9D9"/>
<path d="M419.101 1001.62C418.604 1001.86 418.006 1001.66 417.765 1001.16C417.523 1000.66 417.73 1000.06 418.227 999.823C418.723 999.581 419.322 999.788 419.563 1000.28C419.805 1000.78 419.598 1001.38 419.101 1001.62Z" fill="#D9D9D9"/>
<path d="M1140.89 474.919C1141.27 475.497 1141 476.218 1140.3 476.529C1139.59 476.84 1138.71 476.624 1138.33 476.047C1137.95 475.469 1138.21 474.748 1138.92 474.437C1139.62 474.126 1140.51 474.342 1140.89 474.919Z" fill="#D9D9D9"/>
<path d="M1866.85 39.2571C1866.12 39.5441 1865.25 39.2983 1864.9 38.7081C1864.55 38.1179 1864.85 37.4069 1865.57 37.1199C1866.3 36.8329 1867.17 37.0787 1867.52 37.6689C1867.87 38.2591 1867.57 38.9702 1866.85 39.2571Z" fill="#D9D9D9"/>
<path d="M1251.38 883.674C1251.77 884.252 1251.5 884.973 1250.79 885.284C1250.09 885.596 1249.21 885.38 1248.82 884.802C1248.44 884.224 1248.71 883.503 1249.42 883.192C1250.12 882.881 1251 883.097 1251.38 883.674Z" fill="#D9D9D9"/>
<path d="M1362.53 112.441C1361.8 112.728 1360.93 112.482 1360.58 111.892C1360.23 111.302 1360.53 110.59 1361.25 110.303C1361.98 110.017 1362.85 110.262 1363.2 110.853C1363.55 111.443 1363.25 112.154 1362.53 112.441Z" fill="#D9D9D9"/>
<path d="M1185.96 659.097C1186.34 659.674 1186.08 660.395 1185.37 660.706C1184.66 661.018 1183.78 660.802 1183.4 660.224C1183.02 659.646 1183.28 658.926 1183.99 658.614C1184.7 658.303 1185.58 658.519 1185.96 659.097Z" fill="#D9D9D9"/>
<path d="M1639.8 68.3808C1639.08 68.6678 1638.21 68.422 1637.86 67.8318C1637.51 67.2416 1637.81 66.5305 1638.53 66.2436C1639.26 65.9566 1640.13 66.2024 1640.48 66.7926C1640.83 67.3828 1640.53 68.0938 1639.8 68.3808Z" fill="#D9D9D9"/>
<path d="M1296.46 1067.85C1296.84 1068.43 1296.57 1069.15 1295.87 1069.46C1295.16 1069.77 1294.28 1069.56 1293.9 1068.98C1293.52 1068.4 1293.78 1067.68 1294.49 1067.37C1295.19 1067.06 1296.08 1067.27 1296.46 1067.85Z" fill="#D9D9D9"/>
<path d="M1135.48 141.564C1134.76 141.851 1133.89 141.605 1133.54 141.015C1133.19 140.425 1133.49 139.714 1134.21 139.427C1134.94 139.14 1135.81 139.386 1136.16 139.976C1136.51 140.566 1136.21 141.277 1135.48 141.564Z" fill="#D9D9D9"/>
<path d="M1250.83 579.027C1251.21 579.604 1250.94 580.325 1250.24 580.636C1249.53 580.948 1248.65 580.732 1248.27 580.154C1247.88 579.576 1248.15 578.856 1248.86 578.544C1249.56 578.233 1250.44 578.449 1250.83 579.027Z" fill="#D9D9D9"/>
<path d="M1734.99 124.687C1734.27 124.974 1733.39 124.728 1733.04 124.138C1732.69 123.548 1732.99 122.837 1733.72 122.55C1734.44 122.263 1735.31 122.509 1735.66 123.099C1736.01 123.689 1735.71 124.4 1734.99 124.687Z" fill="#D9D9D9"/>
<path d="M1361.32 987.782C1361.7 988.36 1361.44 989.08 1360.73 989.392C1360.03 989.703 1359.14 989.487 1358.76 988.909C1358.38 988.332 1358.65 987.611 1359.35 987.3C1360.06 986.988 1360.94 987.204 1361.32 987.782Z" fill="#D9D9D9"/>
<path d="M1230.67 197.87C1229.95 198.157 1229.08 197.912 1228.72 197.321C1228.37 196.731 1228.67 196.02 1229.4 195.733C1230.12 195.446 1230.99 195.692 1231.34 196.282C1231.69 196.872 1231.39 197.584 1230.67 197.87Z" fill="#D9D9D9"/>
<path d="M1295.9 763.204C1296.28 763.782 1296.01 764.503 1295.31 764.814C1294.6 765.125 1293.72 764.909 1293.34 764.332C1292.96 763.754 1293.22 763.033 1293.93 762.722C1294.63 762.411 1295.52 762.627 1295.9 763.204Z" fill="#D9D9D9"/>
<path d="M1507.95 153.811C1507.22 154.098 1506.35 153.852 1506 153.262C1505.65 152.671 1505.95 151.96 1506.68 151.673C1507.4 151.386 1508.27 151.632 1508.62 152.222C1508.97 152.813 1508.67 153.524 1507.95 153.811Z" fill="#D9D9D9"/>
<path d="M1406.39 1171.96C1406.78 1172.54 1406.51 1173.26 1405.8 1173.57C1405.1 1173.88 1404.22 1173.66 1403.83 1173.09C1403.45 1172.51 1403.72 1171.79 1404.42 1171.48C1405.13 1171.17 1406.01 1171.38 1406.39 1171.96Z" fill="#D9D9D9"/>
<path d="M1003.63 226.994C1002.9 227.281 1002.03 227.035 1001.68 226.445C1001.33 225.855 1001.63 225.144 1002.36 224.857C1003.08 224.57 1003.95 224.816 1004.3 225.406C1004.65 225.996 1004.35 226.707 1003.63 226.994Z" fill="#D9D9D9"/>
<path d="M1251.68 515.208C1252.07 515.785 1251.8 516.506 1251.09 516.817C1250.39 517.129 1249.51 516.913 1249.12 516.335C1248.74 515.757 1249.01 515.037 1249.72 514.725C1250.42 514.414 1251.3 514.63 1251.68 515.208Z" fill="#D9D9D9"/>
<path d="M1812.97 128.05C1812.25 128.337 1811.38 128.091 1811.03 127.501C1810.68 126.911 1810.98 126.2 1811.7 125.913C1812.42 125.626 1813.29 125.871 1813.64 126.462C1813.99 127.052 1813.69 127.763 1812.97 128.05Z" fill="#D9D9D9"/>
<path d="M1362.18 923.963C1362.56 924.541 1362.3 925.261 1361.59 925.573C1360.89 925.884 1360 925.668 1359.62 925.09C1359.24 924.513 1359.51 923.792 1360.21 923.48C1360.92 923.169 1361.8 923.385 1362.18 923.963Z" fill="#D9D9D9"/>
<path d="M1308.65 201.233C1307.93 201.52 1307.06 201.275 1306.71 200.684C1306.36 200.094 1306.66 199.383 1307.38 199.096C1308.1 198.809 1308.97 199.055 1309.32 199.645C1309.67 200.235 1309.37 200.946 1308.65 201.233Z" fill="#D9D9D9"/>
<path d="M1296.76 699.385C1297.14 699.963 1296.87 700.683 1296.17 700.995C1295.46 701.306 1294.58 701.09 1294.2 700.513C1293.82 699.935 1294.08 699.214 1294.79 698.903C1295.49 698.591 1296.38 698.807 1296.76 699.385Z" fill="#D9D9D9"/>
<path d="M1585.93 157.174C1585.21 157.46 1584.34 157.215 1583.99 156.624C1583.64 156.034 1583.94 155.323 1584.66 155.036C1585.38 154.749 1586.25 154.995 1586.6 155.585C1586.95 156.175 1586.65 156.887 1585.93 157.174Z" fill="#D9D9D9"/>
<path d="M1407.25 1108.14C1407.63 1108.72 1407.37 1109.44 1406.66 1109.75C1405.96 1110.06 1405.07 1109.85 1404.69 1109.27C1404.31 1108.69 1404.58 1107.97 1405.28 1107.66C1405.99 1107.35 1406.87 1107.56 1407.25 1108.14Z" fill="#D9D9D9"/>
<path d="M1081.61 230.357C1080.89 230.644 1080.02 230.398 1079.67 229.808C1079.32 229.218 1079.62 228.507 1080.34 228.22C1081.06 227.933 1081.93 228.179 1082.28 228.769C1082.63 229.359 1082.33 230.07 1081.61 230.357Z" fill="#D9D9D9"/>
<path d="M1361.62 619.315C1362 619.893 1361.74 620.613 1361.03 620.925C1360.33 621.236 1359.44 621.02 1359.06 620.442C1358.68 619.865 1358.95 619.144 1359.65 618.833C1360.36 618.521 1361.24 618.737 1361.62 619.315Z" fill="#D9D9D9"/>
<path d="M1681.11 213.48C1680.39 213.767 1679.52 213.521 1679.17 212.931C1678.82 212.341 1679.12 211.629 1679.84 211.342C1680.56 211.056 1681.43 211.301 1681.79 211.891C1682.14 212.482 1681.84 213.193 1681.11 213.48Z" fill="#D9D9D9"/>
<path d="M1472.12 1028.07C1472.5 1028.65 1472.24 1029.37 1471.53 1029.68C1470.82 1029.99 1469.94 1029.78 1469.56 1029.2C1469.18 1028.62 1469.44 1027.9 1470.15 1027.59C1470.86 1027.28 1471.74 1027.49 1472.12 1028.07Z" fill="#D9D9D9"/>
<path d="M1176.79 286.663C1176.07 286.95 1175.2 286.704 1174.85 286.114C1174.5 285.524 1174.8 284.813 1175.52 284.526C1176.24 284.239 1177.11 284.485 1177.47 285.075C1177.82 285.665 1177.52 286.376 1176.79 286.663Z" fill="#D9D9D9"/>
<path d="M1406.69 803.493C1407.08 804.07 1406.81 804.791 1406.1 805.102C1405.4 805.414 1404.52 805.198 1404.13 804.62C1403.75 804.042 1404.02 803.322 1404.72 803.01C1405.43 802.699 1406.31 802.915 1406.69 803.493Z" fill="#D9D9D9"/>
<path d="M1454.07 242.603C1453.35 242.89 1452.48 242.645 1452.13 242.054C1451.78 241.464 1452.08 240.753 1452.8 240.466C1453.52 240.179 1454.39 240.425 1454.75 241.015C1455.1 241.605 1454.8 242.316 1454.07 242.603Z" fill="#D9D9D9"/>
<path d="M1517.19 1212.25C1517.57 1212.83 1517.31 1213.55 1516.6 1213.86C1515.89 1214.17 1515.01 1213.95 1514.63 1213.38C1514.25 1212.8 1514.52 1212.08 1515.22 1211.77C1515.93 1211.45 1516.81 1211.67 1517.19 1212.25Z" fill="#D9D9D9"/>
<path d="M949.754 315.787C949.032 316.074 948.161 315.828 947.81 315.238C947.459 314.648 947.76 313.937 948.482 313.65C949.204 313.363 950.074 313.608 950.425 314.199C950.777 314.789 950.476 315.5 949.754 315.787Z" fill="#D9D9D9"/>
<path d="M249.887 377.919C250.268 378.497 250.004 379.218 249.297 379.529C248.59 379.84 247.708 379.624 247.327 379.047C246.946 378.469 247.211 377.748 247.917 377.437C248.624 377.126 249.506 377.342 249.887 377.919Z" fill="#D9D9D9"/>
<path d="M975.845 -57.7429C975.123 -57.4559 974.253 -57.7017 973.902 -58.2919C973.551 -58.8821 973.851 -59.5931 974.574 -59.8801C975.296 -60.1671 976.166 -59.9213 976.517 -59.3311C976.868 -58.7409 976.567 -58.0298 975.845 -57.7429Z" fill="#D9D9D9"/>
<path d="M360.385 786.674C360.766 787.252 360.502 787.973 359.795 788.284C359.088 788.596 358.206 788.38 357.825 787.802C357.444 787.224 357.708 786.503 358.415 786.192C359.122 785.881 360.004 786.097 360.385 786.674Z" fill="#D9D9D9"/>
<path d="M471.525 15.4407C470.803 15.7277 469.933 15.4819 469.582 14.8917C469.231 14.3015 469.532 13.5904 470.254 13.3035C470.976 13.0165 471.846 13.2623 472.197 13.8525C472.548 14.4427 472.248 15.1537 471.525 15.4407Z" fill="#D9D9D9"/>
<path d="M294.959 562.097C295.339 562.674 295.075 563.395 294.368 563.706C293.662 564.018 292.78 563.802 292.399 563.224C292.018 562.646 292.282 561.926 292.989 561.614C293.696 561.303 294.578 561.519 294.959 562.097Z" fill="#D9D9D9"/>
<path d="M748.805 -28.6192C748.083 -28.3322 747.213 -28.578 746.861 -29.1682C746.51 -29.7584 746.811 -30.4695 747.533 -30.7564C748.255 -31.0434 749.125 -30.7976 749.476 -30.2074C749.828 -29.6172 749.527 -28.9062 748.805 -28.6192Z" fill="#D9D9D9"/>
<path d="M405.456 970.852C405.837 971.43 405.573 972.15 404.866 972.462C404.159 972.773 403.277 972.557 402.896 971.979C402.515 971.402 402.78 970.681 403.487 970.37C404.193 970.058 405.075 970.274 405.456 970.852Z" fill="#D9D9D9"/>
<path d="M244.485 44.5643C243.763 44.8512 242.893 44.6054 242.542 44.0153C242.19 43.4251 242.491 42.714 243.213 42.427C243.936 42.1401 244.806 42.3859 245.157 42.9761C245.508 43.5662 245.207 44.2773 244.485 44.5643Z" fill="#D9D9D9"/>
<path d="M359.825 482.027C360.206 482.604 359.942 483.325 359.235 483.636C358.528 483.948 357.646 483.732 357.265 483.154C356.885 482.576 357.149 481.856 357.856 481.544C358.562 481.233 359.444 481.449 359.825 482.027Z" fill="#D9D9D9"/>
<path d="M843.987 27.687C843.265 27.9739 842.395 27.7281 842.044 27.1379C841.693 26.5478 841.993 25.8367 842.716 25.5497C843.438 25.2628 844.308 25.5086 844.659 26.0987C845.01 26.6889 844.709 27.4 843.987 27.687Z" fill="#D9D9D9"/>
<path d="M470.323 890.782C470.704 891.36 470.44 892.08 469.733 892.392C469.026 892.703 468.144 892.487 467.763 891.909C467.382 891.332 467.646 890.611 468.353 890.3C469.06 889.988 469.942 890.204 470.323 890.782Z" fill="#D9D9D9"/>
<path d="M339.667 100.87C338.945 101.157 338.075 100.912 337.724 100.321C337.373 99.7313 337.674 99.0202 338.396 98.7333C339.118 98.4463 339.988 98.6921 340.339 99.2823C340.69 99.8725 340.389 100.584 339.667 100.87Z" fill="#D9D9D9"/>
<path d="M404.897 666.204C405.278 666.782 405.013 667.503 404.307 667.814C403.6 668.125 402.718 667.909 402.337 667.332C401.956 666.754 402.22 666.033 402.927 665.722C403.634 665.411 404.516 665.627 404.897 666.204Z" fill="#D9D9D9"/>
<path d="M616.947 56.8106C616.225 57.0976 615.355 56.8517 615.003 56.2616C614.652 55.6714 614.953 54.9603 615.675 54.6734C616.397 54.3864 617.267 54.6322 617.618 55.2224C617.97 55.8125 617.669 56.5236 616.947 56.8106Z" fill="#D9D9D9"/>
<path d="M515.394 1074.96C515.775 1075.54 515.511 1076.26 514.804 1076.57C514.097 1076.88 513.215 1076.66 512.834 1076.09C512.453 1075.51 512.718 1074.79 513.425 1074.48C514.131 1074.17 515.013 1074.38 515.394 1074.96Z" fill="#D9D9D9"/>
<path d="M112.627 129.994C111.905 130.281 111.035 130.035 110.684 129.445C110.333 128.855 110.633 128.144 111.355 127.857C112.078 127.57 112.948 127.816 113.299 128.406C113.65 128.996 113.349 129.707 112.627 129.994Z" fill="#D9D9D9"/>
<path d="M360.685 418.208C361.066 418.785 360.801 419.506 360.095 419.817C359.388 420.129 358.506 419.913 358.125 419.335C357.744 418.757 358.008 418.037 358.715 417.725C359.422 417.414 360.304 417.63 360.685 418.208Z" fill="#D9D9D9"/>
<path d="M921.972 31.0499C921.25 31.3368 920.38 31.091 920.028 30.5009C919.677 29.9107 919.978 29.1996 920.7 28.9127C921.422 28.6257 922.292 28.8715 922.643 29.4617C922.995 30.0518 922.694 30.7629 921.972 31.0499Z" fill="#D9D9D9"/>
<path d="M471.182 826.963C471.563 827.541 471.299 828.261 470.592 828.573C469.885 828.884 469.003 828.668 468.622 828.09C468.242 827.513 468.506 826.792 469.213 826.48C469.919 826.169 470.801 826.385 471.182 826.963Z" fill="#D9D9D9"/>
<path d="M417.652 104.233C416.93 104.52 416.06 104.275 415.709 103.684C415.358 103.094 415.658 102.383 416.38 102.096C417.103 101.809 417.973 102.055 418.324 102.645C418.675 103.235 418.374 103.946 417.652 104.233Z" fill="#D9D9D9"/>
<path d="M405.756 602.385C406.137 602.963 405.873 603.683 405.166 603.995C404.459 604.306 403.577 604.09 403.196 603.513C402.815 602.935 403.08 602.214 403.786 601.903C404.493 601.591 405.375 601.807 405.756 602.385Z" fill="#D9D9D9"/>
<path d="M694.931 60.1735C694.209 60.4605 693.339 60.2147 692.988 59.6245C692.637 59.0343 692.938 58.3233 693.66 58.0363C694.382 57.7493 695.252 57.9951 695.603 58.5853C695.954 59.1755 695.653 59.8865 694.931 60.1735Z" fill="#D9D9D9"/>
<path d="M516.254 1011.14C516.635 1011.72 516.37 1012.44 515.664 1012.75C514.957 1013.06 514.075 1012.85 513.694 1012.27C513.313 1011.69 513.577 1010.97 514.284 1010.66C514.991 1010.35 515.873 1010.56 516.254 1011.14Z" fill="#D9D9D9"/>
<path d="M190.612 133.357C189.889 133.644 189.019 133.398 188.668 132.808C188.317 132.218 188.618 131.507 189.34 131.22C190.062 130.933 190.932 131.179 191.283 131.769C191.634 132.359 191.334 133.07 190.612 133.357Z" fill="#D9D9D9"/>
<path d="M470.623 522.315C471.004 522.893 470.739 523.613 470.033 523.925C469.326 524.236 468.444 524.02 468.063 523.442C467.682 522.865 467.946 522.144 468.653 521.833C469.36 521.521 470.242 521.737 470.623 522.315Z" fill="#D9D9D9"/>
<path d="M790.114 116.48C789.392 116.767 788.522 116.521 788.171 115.931C787.819 115.34 788.12 114.629 788.842 114.342C789.564 114.056 790.434 114.301 790.786 114.891C791.137 115.482 790.836 116.193 790.114 116.48Z" fill="#D9D9D9"/>
<path d="M581.12 931.07C581.501 931.648 581.237 932.369 580.53 932.68C579.823 932.991 578.942 932.775 578.561 932.198C578.18 931.62 578.444 930.899 579.151 930.588C579.858 930.277 580.739 930.493 581.12 931.07Z" fill="#D9D9D9"/>
<path d="M285.794 189.663C285.072 189.95 284.202 189.704 283.851 189.114C283.5 188.524 283.8 187.813 284.523 187.526C285.245 187.239 286.115 187.485 286.466 188.075C286.817 188.665 286.516 189.376 285.794 189.663Z" fill="#D9D9D9"/>
<path d="M515.694 706.493C516.075 707.07 515.811 707.791 515.104 708.102C514.397 708.414 513.515 708.198 513.134 707.62C512.753 707.042 513.018 706.322 513.724 706.01C514.431 705.699 515.313 705.915 515.694 706.493Z" fill="#D9D9D9"/>
<path d="M563.073 145.603C562.351 145.89 561.481 145.645 561.13 145.054C560.779 144.464 561.08 143.753 561.802 143.466C562.524 143.179 563.394 143.425 563.745 144.015C564.096 144.605 563.796 145.316 563.073 145.603Z" fill="#D9D9D9"/>
<path d="M626.192 1115.25C626.573 1115.83 626.309 1116.55 625.602 1116.86C624.895 1117.17 624.013 1116.95 623.632 1116.38C623.251 1115.8 623.515 1115.08 624.222 1114.77C624.929 1114.45 625.811 1114.67 626.192 1115.25Z" fill="#D9D9D9"/>
<path d="M58.7537 218.787C58.0315 219.074 57.1615 218.828 56.8103 218.238C56.4592 217.648 56.76 216.937 57.4821 216.65C58.2042 216.363 59.0743 216.608 59.4254 217.199C59.7766 217.789 59.4758 218.5 58.7537 218.787Z" fill="#D9D9D9"/>
</svg>
