<svg width="1195" height="357" viewBox="0 0 1195 357" fill="none" xmlns="http://www.w3.org/2000/svg">
<g filter="url(#filter0_d_7_13)">
<line x1="32.8555" y1="-11.6444" x2="32.8555" y2="264.592" stroke="white" stroke-width="3"/>
</g>
<path d="M19.6187 244.847L32.0184 255.887L46.2722 247.165L39.6818 262.71L52.0815 273.75L35.6087 272.317L29.0184 287.862L25.428 271.432L8.95523 269.999L23.209 261.277L19.6187 244.847Z" fill="#D9D9D9"/>
<g filter="url(#filter1_d_7_13)">
<line x1="226.795" y1="-145" x2="226.795" y2="131.237" stroke="white" stroke-width="3"/>
</g>
<path d="M213.985 111.231L226.654 122.51L241.218 113.599L234.484 129.482L247.153 140.762L230.322 139.298L223.589 155.181L219.92 138.393L203.089 136.929L217.653 128.018L213.985 111.231Z" fill="#D9D9D9"/>
<g filter="url(#filter2_d_7_13)">
<line x1="1150.45" y1="-28.3139" x2="1150.45" y2="313.833" stroke="white" stroke-width="3"/>
</g>
<path d="M1131.57 286.119L1149.94 301.517L1170.51 289.935L1161.29 311.034L1179.65 326.432L1155.59 324.074L1146.36 345.172L1140.71 322.616L1116.64 320.258L1137.22 308.676L1131.57 286.119Z" fill="#D9D9D9"/>
<defs>
<filter id="filter0_d_7_13" x="27.3555" y="-11.6444" width="11" height="284.237" filterUnits="userSpaceOnUse" color-interpolation-filters="sRGB">
<feFlood flood-opacity="0" result="BackgroundImageFix"/>
<feColorMatrix in="SourceAlpha" type="matrix" values="0 0 0 0 0 0 0 0 0 0 0 0 0 0 0 0 0 0 127 0" result="hardAlpha"/>
<feOffset dy="4"/>
<feGaussianBlur stdDeviation="2"/>
<feComposite in2="hardAlpha" operator="out"/>
<feColorMatrix type="matrix" values="0 0 0 0 0 0 0 0 0 0 0 0 0 0 0 0 0 0 0.25 0"/>
<feBlend mode="normal" in2="BackgroundImageFix" result="effect1_dropShadow_7_13"/>
<feBlend mode="normal" in="SourceGraphic" in2="effect1_dropShadow_7_13" result="shape"/>
</filter>
<filter id="filter1_d_7_13" x="221.295" y="-145" width="11" height="284.237" filterUnits="userSpaceOnUse" color-interpolation-filters="sRGB">
<feFlood flood-opacity="0" result="BackgroundImageFix"/>
<feColorMatrix in="SourceAlpha" type="matrix" values="0 0 0 0 0 0 0 0 0 0 0 0 0 0 0 0 0 0 127 0" result="hardAlpha"/>
<feOffset dy="4"/>
<feGaussianBlur stdDeviation="2"/>
<feComposite in2="hardAlpha" operator="out"/>
<feColorMatrix type="matrix" values="0 0 0 0 0 0 0 0 0 0 0 0 0 0 0 0 0 0 0.25 0"/>
<feBlend mode="normal" in2="BackgroundImageFix" result="effect1_dropShadow_7_13"/>
<feBlend mode="normal" in="SourceGraphic" in2="effect1_dropShadow_7_13" result="shape"/>
</filter>
<filter id="filter2_d_7_13" x="1144.95" y="-28.3139" width="11" height="350.147" filterUnits="userSpaceOnUse" color-interpolation-filters="sRGB">
<feFlood flood-opacity="0" result="BackgroundImageFix"/>
<feColorMatrix in="SourceAlpha" type="matrix" values="0 0 0 0 0 0 0 0 0 0 0 0 0 0 0 0 0 0 127 0" result="hardAlpha"/>
<feOffset dy="4"/>
<feGaussianBlur stdDeviation="2"/>
<feComposite in2="hardAlpha" operator="out"/>
<feColorMatrix type="matrix" values="0 0 0 0 0 0 0 0 0 0 0 0 0 0 0 0 0 0 0.25 0"/>
<feBlend mode="normal" in2="BackgroundImageFix" result="effect1_dropShadow_7_13"/>
<feBlend mode="normal" in="SourceGraphic" in2="effect1_dropShadow_7_13" result="shape"/>
</filter>
</defs>
</svg>
